<svg xmlns="http://www.w3.org/2000/svg" width="1600" height="1200" viewBox="0 0 1600 1200" role="img" aria-label="Noah/Hiace placeholder">
  <defs>
    <linearGradient id="bg" x1="0" y1="0" x2="1" y2="1">
      <stop offset="0" stop-color="#081028"/>
      <stop offset="1" stop-color="#020617"/>
    </linearGradient>
    <radialGradient id="glow" cx="40%" cy="25%" r="70%">
      <stop offset="0" stop-color="#22c55e" stop-opacity="0.22"/>
      <stop offset="1" stop-color="#22c55e" stop-opacity="0"/>
    </radialGradient>
  </defs>

  <rect width="1600" height="1200" fill="url(#bg)"/>
  <rect width="1600" height="1200" fill="url(#glow)"/>

  <path d="M180 860H1420" stroke="#d4af37" stroke-opacity="0.25" stroke-width="4"/>

  <!-- Van / microbus silhouette -->
  <g transform="translate(140,510)">
    <path
      d="M230 290c0-90 46-164 122-196 104-44 315-62 508-62 193 0 404 18 508 62 76 32 122 106 122 196v78c0 18-12 34-29 39l-90 27c-12 3-25-2-31-13l-46-82c-16-28-46-45-78-45H356c-32 0-62 17-78 45l-46 82c-6 11-19 16-31 13l-90-27c-17-5-29-21-29-39v-78z"
      fill="#e5e7eb" fill-opacity="0.9"/>

    <rect x="360" y="78" width="1020" height="210" rx="30" fill="#e5e7eb" fill-opacity="0.85"/>
    <rect x="460" y="126" width="820" height="114" rx="18" fill="#0b1224" fill-opacity="0.76"/>

    <circle cx="470" cy="380" r="86" fill="#0b1224"/>
    <circle cx="470" cy="380" r="52" fill="#111827"/>
    <circle cx="1230" cy="380" r="86" fill="#0b1224"/>
    <circle cx="1230" cy="380" r="52" fill="#111827"/>

    <path d="M300 290h1100" stroke="#22c55e" stroke-opacity="0.35" stroke-width="6"/>
  </g>

  <text x="800" y="176" text-anchor="middle" fill="#e5e7eb" font-family="ui-sans-serif, system-ui" font-size="34" font-weight="700" letter-spacing="1">
    Noah/Hiace (Placeholder)
  </text>
</svg>
